<mxfile host="app.diagrams.net" modified="2025-03-31T07:26:19.736Z" agent="Mozilla/5.0 (Windows NT 10.0; Win64; x64) AppleWebKit/537.36 (KHTML, like Gecko) Chrome/134.0.0.0 Safari/537.36" etag="CMSO5tk_drq4Fm-mcfos" version="24.2.3" type="github">
  <diagram name="第 1 页" id="Spj-wPhwD31XcSMigiX-">
    <mxGraphModel dx="814" dy="478" grid="1" gridSize="10" guides="1" tooltips="1" connect="1" arrows="1" fold="1" page="1" pageScale="1" pageWidth="827" pageHeight="1169" math="0" shadow="0">
      <root>
        <mxCell id="0" />
        <mxCell id="1" parent="0" />
        <mxCell id="w0ibVY2QCUgTcvfzlepY-8" style="edgeStyle=orthogonalEdgeStyle;rounded=0;orthogonalLoop=1;jettySize=auto;html=1;exitX=0.5;exitY=1;exitDx=0;exitDy=0;entryX=0.5;entryY=0;entryDx=0;entryDy=0;" edge="1" parent="1" source="w0ibVY2QCUgTcvfzlepY-3" target="w0ibVY2QCUgTcvfzlepY-4">
          <mxGeometry relative="1" as="geometry" />
        </mxCell>
        <mxCell id="w0ibVY2QCUgTcvfzlepY-3" value="CDN静态资源加速" style="rounded=0;whiteSpace=wrap;html=1;fillColor=#ffe6cc;strokeColor=#d79b00;" vertex="1" parent="1">
          <mxGeometry x="280" y="290" width="120" height="60" as="geometry" />
        </mxCell>
        <mxCell id="w0ibVY2QCUgTcvfzlepY-9" style="edgeStyle=orthogonalEdgeStyle;rounded=0;orthogonalLoop=1;jettySize=auto;html=1;exitX=0.5;exitY=1;exitDx=0;exitDy=0;" edge="1" parent="1" source="w0ibVY2QCUgTcvfzlepY-4" target="w0ibVY2QCUgTcvfzlepY-5">
          <mxGeometry relative="1" as="geometry" />
        </mxCell>
        <mxCell id="w0ibVY2QCUgTcvfzlepY-4" value="Nginx服务器" style="rounded=0;whiteSpace=wrap;html=1;fillColor=#ffe6cc;strokeColor=#d79b00;" vertex="1" parent="1">
          <mxGeometry x="280" y="385" width="120" height="60" as="geometry" />
        </mxCell>
        <mxCell id="w0ibVY2QCUgTcvfzlepY-10" style="edgeStyle=orthogonalEdgeStyle;rounded=0;orthogonalLoop=1;jettySize=auto;html=1;exitX=0.5;exitY=1;exitDx=0;exitDy=0;entryX=0.5;entryY=1;entryDx=0;entryDy=0;" edge="1" parent="1" source="w0ibVY2QCUgTcvfzlepY-5" target="w0ibVY2QCUgTcvfzlepY-6">
          <mxGeometry relative="1" as="geometry" />
        </mxCell>
        <mxCell id="w0ibVY2QCUgTcvfzlepY-5" value="前端&lt;div&gt;HTML / CSS / JS&lt;/div&gt;" style="rounded=0;whiteSpace=wrap;html=1;fillColor=#ffe6cc;strokeColor=#d79b00;" vertex="1" parent="1">
          <mxGeometry x="280" y="490" width="120" height="60" as="geometry" />
        </mxCell>
        <mxCell id="w0ibVY2QCUgTcvfzlepY-11" style="edgeStyle=orthogonalEdgeStyle;rounded=0;orthogonalLoop=1;jettySize=auto;html=1;exitX=0.5;exitY=0;exitDx=0;exitDy=0;entryX=0.5;entryY=1;entryDx=0;entryDy=0;" edge="1" parent="1" source="w0ibVY2QCUgTcvfzlepY-6" target="w0ibVY2QCUgTcvfzlepY-7">
          <mxGeometry relative="1" as="geometry">
            <mxPoint x="340" y="675" as="sourcePoint" />
            <mxPoint x="620" y="440" as="targetPoint" />
          </mxGeometry>
        </mxCell>
        <mxCell id="w0ibVY2QCUgTcvfzlepY-6" value="后端&lt;div&gt;NodeJS&lt;/div&gt;" style="rounded=0;whiteSpace=wrap;html=1;fillColor=#fff2cc;strokeColor=#d6b656;" vertex="1" parent="1">
          <mxGeometry x="480" y="490" width="120" height="60" as="geometry" />
        </mxCell>
        <mxCell id="w0ibVY2QCUgTcvfzlepY-20" style="edgeStyle=orthogonalEdgeStyle;rounded=0;orthogonalLoop=1;jettySize=auto;html=1;exitX=0.5;exitY=0;exitDx=0;exitDy=0;" edge="1" parent="1" source="w0ibVY2QCUgTcvfzlepY-7" target="w0ibVY2QCUgTcvfzlepY-19">
          <mxGeometry relative="1" as="geometry" />
        </mxCell>
        <mxCell id="w0ibVY2QCUgTcvfzlepY-7" value="DeepSeek API" style="rounded=0;whiteSpace=wrap;html=1;fillColor=#d5e8d4;strokeColor=#82b366;" vertex="1" parent="1">
          <mxGeometry x="480" y="335" width="120" height="50" as="geometry" />
        </mxCell>
        <mxCell id="w0ibVY2QCUgTcvfzlepY-13" value="(反向代理)" style="text;html=1;align=center;verticalAlign=middle;resizable=0;points=[];autosize=1;strokeColor=none;fillColor=none;" vertex="1" parent="1">
          <mxGeometry x="329" y="445" width="80" height="30" as="geometry" />
        </mxCell>
        <mxCell id="w0ibVY2QCUgTcvfzlepY-14" value="fetch&lt;div&gt;连接后端 API&lt;/div&gt;" style="text;html=1;align=center;verticalAlign=middle;resizable=0;points=[];autosize=1;strokeColor=none;fillColor=none;" vertex="1" parent="1">
          <mxGeometry x="390" y="510" width="90" height="40" as="geometry" />
        </mxCell>
        <mxCell id="w0ibVY2QCUgTcvfzlepY-15" value="通过 SDK 调用&lt;br&gt;外部大模型接口" style="text;html=1;align=center;verticalAlign=middle;resizable=0;points=[];autosize=1;strokeColor=none;fillColor=none;" vertex="1" parent="1">
          <mxGeometry x="540" y="410" width="110" height="40" as="geometry" />
        </mxCell>
        <mxCell id="w0ibVY2QCUgTcvfzlepY-17" style="edgeStyle=orthogonalEdgeStyle;rounded=0;orthogonalLoop=1;jettySize=auto;html=1;exitX=0.5;exitY=1;exitDx=0;exitDy=0;entryX=0.5;entryY=0;entryDx=0;entryDy=0;" edge="1" parent="1" source="w0ibVY2QCUgTcvfzlepY-16" target="w0ibVY2QCUgTcvfzlepY-3">
          <mxGeometry relative="1" as="geometry" />
        </mxCell>
        <mxCell id="w0ibVY2QCUgTcvfzlepY-16" value="用户输入&lt;div&gt;（浏览器）&lt;/div&gt;" style="rounded=1;whiteSpace=wrap;html=1;fillColor=#dae8fc;strokeColor=#6c8ebf;" vertex="1" parent="1">
          <mxGeometry x="280" y="205" width="120" height="50" as="geometry" />
        </mxCell>
        <mxCell id="w0ibVY2QCUgTcvfzlepY-18" value="访问静态资源" style="text;html=1;align=center;verticalAlign=middle;resizable=0;points=[];autosize=1;strokeColor=none;fillColor=none;" vertex="1" parent="1">
          <mxGeometry x="330" y="255" width="100" height="30" as="geometry" />
        </mxCell>
        <mxCell id="w0ibVY2QCUgTcvfzlepY-19" value="用户接收&lt;div&gt;（浏览器）&lt;/div&gt;" style="rounded=1;whiteSpace=wrap;html=1;fillColor=#dae8fc;strokeColor=#6c8ebf;" vertex="1" parent="1">
          <mxGeometry x="480" y="205" width="120" height="50" as="geometry" />
        </mxCell>
        <mxCell id="w0ibVY2QCUgTcvfzlepY-21" value="返回 JSON 结果" style="text;html=1;align=center;verticalAlign=middle;resizable=0;points=[];autosize=1;strokeColor=none;fillColor=none;" vertex="1" parent="1">
          <mxGeometry x="530" y="280" width="110" height="30" as="geometry" />
        </mxCell>
      </root>
    </mxGraphModel>
  </diagram>
</mxfile>
